<svg width="182" height="35" viewBox="0 0 182 35" fill="none" xmlns="http://www.w3.org/2000/svg">
<path d="M12.832 27.38C10.4253 27.38 8.32267 27.0127 6.524 26.278C4.72533 25.518 3.30667 24.378 2.268 22.858C1.25467 21.338 0.697333 19.4127 0.596 17.082C0.570667 16.0433 0.558 14.9287 0.558 13.738C0.558 12.5473 0.570667 11.4073 0.596 10.318C0.697333 8.038 1.26733 6.138 2.306 4.618C3.37 3.07267 4.80133 1.92 6.6 1.16C8.424 0.399999 10.5013 0.0199986 12.832 0.0199986C14.504 0.0199986 16.062 0.222666 17.506 0.628C18.9753 1.008 20.28 1.60333 21.42 2.414C22.56 3.19933 23.4593 4.18733 24.118 5.378C24.7767 6.54333 25.1187 7.91133 25.144 9.482C25.144 9.71 25.0553 9.9 24.878 10.052C24.726 10.204 24.536 10.28 24.308 10.28H17.886C17.506 10.28 17.2273 10.204 17.05 10.052C16.8727 9.9 16.7207 9.634 16.594 9.254C16.2647 8.16467 15.7833 7.43 15.15 7.05C14.5167 6.67 13.744 6.48 12.832 6.48C11.7173 6.48 10.8307 6.784 10.172 7.392C9.51333 7.97467 9.15867 9.01333 9.108 10.508C9.032 12.5853 9.032 14.7133 9.108 16.892C9.15867 18.3867 9.51333 19.438 10.172 20.046C10.8307 20.6287 11.7173 20.92 12.832 20.92C13.744 20.92 14.5167 20.7173 15.15 20.312C15.8087 19.9067 16.29 19.1847 16.594 18.146C16.6953 17.7407 16.8347 17.4747 17.012 17.348C17.2147 17.196 17.506 17.12 17.886 17.12H24.308C24.536 17.12 24.726 17.196 24.878 17.348C25.0553 17.5 25.144 17.69 25.144 17.918C25.1187 19.4887 24.7767 20.8693 24.118 22.06C23.4593 23.2253 22.56 24.2133 21.42 25.024C20.28 25.8093 18.9753 26.4047 17.506 26.81C16.062 27.19 14.504 27.38 12.832 27.38ZM32.0514 34.22C31.8234 34.22 31.6207 34.144 31.4434 33.992C31.2914 33.84 31.2154 33.65 31.2154 33.422C31.2154 33.3713 31.2154 33.308 31.2154 33.232C31.2407 33.156 31.2661 33.0673 31.2914 32.966L34.3314 25.784L26.9974 8.494C26.9467 8.342 26.9214 8.21533 26.9214 8.114C26.9721 7.886 27.0734 7.68333 27.2254 7.506C27.4027 7.32867 27.6054 7.24 27.8334 7.24H33.1914C33.5714 7.24 33.8374 7.34133 33.9894 7.544C34.1667 7.72133 34.2934 7.89867 34.3694 8.076L38.0934 17.956L41.9314 8.076C42.0327 7.87333 42.1721 7.68333 42.3494 7.506C42.5267 7.32867 42.7927 7.24 43.1474 7.24H48.4674C48.6701 7.24 48.8601 7.32867 49.0374 7.506C49.2147 7.658 49.3034 7.83533 49.3034 8.038C49.3034 8.19 49.2781 8.342 49.2274 8.494L38.5114 33.384C38.4101 33.5867 38.2581 33.7767 38.0554 33.954C37.8781 34.1313 37.6121 34.22 37.2574 34.22H32.0514ZM64.8145 27.38C63.4465 27.38 62.2938 27.1647 61.3565 26.734C60.4445 26.278 59.6718 25.6827 59.0385 24.948V26.012C59.0385 26.2907 58.9372 26.5313 58.7345 26.734C58.5572 26.9113 58.3292 27 58.0505 27H52.6925C52.4138 27 52.1732 26.9113 51.9705 26.734C51.7932 26.5313 51.7045 26.2907 51.7045 26.012V1.008C51.7045 0.729332 51.7932 0.501332 51.9705 0.323999C52.1732 0.121332 52.4138 0.0199986 52.6925 0.0199986H58.5445C58.7978 0.0199986 59.0258 0.121332 59.2285 0.323999C59.4312 0.501332 59.5325 0.729332 59.5325 1.008V8.874C60.1405 8.266 60.8752 7.78466 61.7365 7.43C62.6232 7.05 63.6492 6.86 64.8145 6.86C66.0052 6.86 67.0819 7.06267 68.0445 7.468C69.0072 7.848 69.8432 8.40533 70.5525 9.14C71.2619 9.87467 71.8192 10.7993 72.2245 11.914C72.6299 13.0033 72.8579 14.2573 72.9085 15.676C72.9338 16.208 72.9465 16.6767 72.9465 17.082C72.9465 17.4873 72.9338 17.9687 72.9085 18.526C72.8325 20.0207 72.5919 21.3253 72.1865 22.44C71.7812 23.5547 71.2239 24.4793 70.5145 25.214C69.8052 25.9487 68.9692 26.4933 68.0065 26.848C67.0692 27.2027 66.0052 27.38 64.8145 27.38ZM62.2305 21.452C62.8892 21.452 63.3958 21.3253 63.7505 21.072C64.1305 20.7933 64.3965 20.426 64.5485 19.97C64.7258 19.4887 64.8398 18.944 64.8905 18.336C64.9665 17.5253 64.9665 16.7147 64.8905 15.904C64.8398 15.296 64.7258 14.764 64.5485 14.308C64.3965 13.8267 64.1305 13.4593 63.7505 13.206C63.3958 12.9273 62.8892 12.788 62.2305 12.788C61.5972 12.788 61.0905 12.9147 60.7105 13.168C60.3305 13.4213 60.0392 13.7507 59.8365 14.156C59.6592 14.5613 59.5578 15.03 59.5325 15.562C59.5072 16.094 59.4945 16.5627 59.4945 16.968C59.4945 17.3733 59.5072 17.8547 59.5325 18.412C59.5578 18.9693 59.6465 19.476 59.7985 19.932C59.9758 20.388 60.2545 20.7553 60.6345 21.034C61.0398 21.3127 61.5718 21.452 62.2305 21.452ZM82.3889 27.38C80.9956 27.38 79.7416 27.114 78.6269 26.582C77.5376 26.05 76.6763 25.3407 76.0429 24.454C75.4349 23.542 75.1309 22.5287 75.1309 21.414C75.1309 19.59 75.8656 18.1587 77.3349 17.12C78.8296 16.056 80.8183 15.3213 83.3009 14.916L87.6709 14.232V13.966C87.6709 13.1807 87.5443 12.598 87.2909 12.218C87.0629 11.8127 86.5689 11.61 85.8089 11.61C85.2769 11.61 84.8463 11.7113 84.5169 11.914C84.1876 12.1167 83.8836 12.408 83.6049 12.788C83.3516 13.0667 83.0223 13.206 82.6169 13.206H77.2589C76.9803 13.206 76.7649 13.13 76.6129 12.978C76.4609 12.826 76.3976 12.6233 76.4229 12.37C76.4483 11.914 76.6383 11.382 76.9929 10.774C77.3476 10.1407 77.8923 9.53267 78.6269 8.95C79.3869 8.342 80.3623 7.848 81.5529 7.468C82.7436 7.06267 84.1749 6.86 85.8469 6.86C87.5443 6.86 89.0009 7.05 90.2169 7.43C91.4329 7.81 92.4336 8.342 93.2189 9.026C94.0043 9.71 94.5869 10.546 94.9669 11.534C95.3469 12.4967 95.5369 13.5733 95.5369 14.764V26.012C95.5369 26.2907 95.4356 26.5313 95.2329 26.734C95.0556 26.9113 94.8276 27 94.5489 27H89.0009C88.7476 27 88.5196 26.9113 88.3169 26.734C88.1143 26.5313 88.0129 26.2907 88.0129 26.012V24.796C87.6836 25.3027 87.2403 25.746 86.6829 26.126C86.1509 26.506 85.5176 26.81 84.7829 27.038C84.0736 27.266 83.2756 27.38 82.3889 27.38ZM84.5929 22.402C85.2263 22.402 85.7709 22.2753 86.2269 22.022C86.7083 21.7433 87.0883 21.3253 87.3669 20.768C87.6456 20.2107 87.7849 19.514 87.7849 18.678V18.412L85.0489 18.944C84.1116 19.1213 83.4529 19.3873 83.0729 19.742C82.6929 20.0713 82.5029 20.4387 82.5029 20.844C82.5029 21.148 82.5916 21.414 82.7689 21.642C82.9463 21.87 83.1869 22.06 83.4909 22.212C83.8203 22.3387 84.1876 22.402 84.5929 22.402Z" fill="#000033"/>
<path d="M111.172 27.38C108.765 27.38 106.663 27.0127 104.864 26.278C103.065 25.518 101.647 24.378 100.608 22.858C99.5945 21.338 99.0372 19.4127 98.9358 17.082C98.9105 16.0433 98.8978 14.9287 98.8978 13.738C98.8978 12.5473 98.9105 11.4073 98.9358 10.318C99.0372 8.038 99.6072 6.138 100.646 4.618C101.71 3.07267 103.141 1.92 104.94 1.16C106.764 0.399999 108.841 0.0199986 111.172 0.0199986C112.844 0.0199986 114.402 0.222666 115.846 0.628C117.315 1.008 118.62 1.60333 119.76 2.414C120.9 3.19933 121.799 4.18733 122.458 5.378C123.117 6.54333 123.459 7.91133 123.484 9.482C123.484 9.71 123.395 9.9 123.218 10.052C123.066 10.204 122.876 10.28 122.648 10.28H116.226C115.846 10.28 115.567 10.204 115.39 10.052C115.213 9.9 115.061 9.634 114.934 9.254C114.605 8.16467 114.123 7.43 113.49 7.05C112.857 6.67 112.084 6.48 111.172 6.48C110.057 6.48 109.171 6.784 108.512 7.392C107.853 7.97467 107.499 9.01333 107.448 10.508C107.372 12.5853 107.372 14.7133 107.448 16.892C107.499 18.3867 107.853 19.438 108.512 20.046C109.171 20.6287 110.057 20.92 111.172 20.92C112.084 20.92 112.857 20.7173 113.49 20.312C114.149 19.9067 114.63 19.1847 114.934 18.146C115.035 17.7407 115.175 17.4747 115.352 17.348C115.555 17.196 115.846 17.12 116.226 17.12H122.648C122.876 17.12 123.066 17.196 123.218 17.348C123.395 17.5 123.484 17.69 123.484 17.918C123.459 19.4887 123.117 20.8693 122.458 22.06C121.799 23.2253 120.9 24.2133 119.76 25.024C118.62 25.8093 117.315 26.4047 115.846 26.81C114.402 27.19 112.844 27.38 111.172 27.38ZM127.959 27C127.706 27 127.478 26.9113 127.275 26.734C127.073 26.5313 126.971 26.2907 126.971 26.012V1.388C126.971 1.10933 127.073 0.881331 127.275 0.703999C127.478 0.501332 127.706 0.399998 127.959 0.399998H138.789C142.235 0.399998 144.933 1.18533 146.883 2.756C148.859 4.32667 149.847 6.518 149.847 9.33C149.847 11.1033 149.442 12.6107 148.631 13.852C147.821 15.0933 146.757 16.0687 145.439 16.778L150.379 25.746C150.455 25.898 150.493 26.0373 150.493 26.164C150.493 26.392 150.417 26.5947 150.265 26.772C150.113 26.924 149.923 27 149.695 27H143.273C142.792 27 142.425 26.886 142.171 26.658C141.918 26.4047 141.753 26.1767 141.677 25.974L137.877 18.146H135.141V26.012C135.141 26.2907 135.04 26.5313 134.837 26.734C134.66 26.9113 134.432 27 134.153 27H127.959ZM135.141 11.876H138.751C139.638 11.876 140.297 11.6353 140.727 11.154C141.158 10.6473 141.373 10.0267 141.373 9.292C141.373 8.532 141.158 7.886 140.727 7.354C140.322 6.822 139.663 6.556 138.751 6.556H135.141V11.876ZM154.864 27C154.586 27 154.345 26.9113 154.142 26.734C153.94 26.5313 153.838 26.2907 153.838 26.012V1.388C153.838 1.10933 153.94 0.881331 154.142 0.703999C154.345 0.501332 154.586 0.399998 154.864 0.399998H159.918C160.374 0.399998 160.716 0.526665 160.944 0.779998C161.172 1.03333 161.324 1.21067 161.4 1.312L167.48 11.876L173.56 1.312C173.636 1.21067 173.788 1.03333 174.016 0.779998C174.244 0.526665 174.586 0.399998 175.042 0.399998H180.096C180.375 0.399998 180.603 0.501332 180.78 0.703999C180.983 0.881331 181.084 1.10933 181.084 1.388V26.012C181.084 26.2907 180.983 26.5313 180.78 26.734C180.603 26.9113 180.375 27 180.096 27H174.396C174.118 27 173.877 26.9113 173.674 26.734C173.497 26.5313 173.408 26.2907 173.408 26.012V13.7L169.988 19.704C169.862 19.9067 169.697 20.1093 169.494 20.312C169.292 20.5147 169 20.616 168.62 20.616H166.302C165.948 20.616 165.669 20.5147 165.466 20.312C165.264 20.1093 165.099 19.9067 164.972 19.704L161.552 13.7V26.012C161.552 26.2907 161.451 26.5313 161.248 26.734C161.071 26.9113 160.843 27 160.564 27H154.864Z" fill="#3E71F1"/>
</svg>
